<?xml version="1.0" standalone="no"?>
<!DOCTYPE svg PUBLIC "-//W3C//DTD SVG 20010904//EN"
 "http://www.w3.org/TR/2001/REC-SVG-20010904/DTD/svg10.dtd">
<svg version="1.0" xmlns="http://www.w3.org/2000/svg"
 width="463.000000pt" height="463.000000pt" viewBox="0 0 463.000000 463.000000"
 preserveAspectRatio="xMidYMid meet">
<metadata>
Created by potrace 1.14, written by Peter Selinger 2001-2017
</metadata>
<g transform="translate(0.000000,463.000000) scale(0.100000,-0.100000)"
fill="#000000" stroke="none">
<path d="M1377 3743 c-4 -3 -7 -37 -7 -75 0 -72 15 -117 53 -152 18 -17 18
-20 4 -25 -24 -9 -24 -409 0 -493 9 -32 20 -58 25 -58 5 0 6 -4 3 -10 -3 -5
-1 -10 4 -10 6 0 11 -5 11 -12 0 -13 88 -98 102 -98 5 0 16 -7 25 -15 8 -8 19
-13 24 -10 5 4 9 2 9 -4 0 -12 132 -35 169 -29 l28 4 -2 -140 c-3 -158 0 -165
65 -160 l38 3 4 -80 c3 -85 11 -99 57 -99 l24 0 -23 -20 c-14 -13 -22 -29 -20
-47 1 -15 3 -172 5 -348 2 -278 1 -324 -13 -350 -9 -16 -15 -33 -14 -37 1 -5
-1 -8 -5 -8 -15 0 -13 -102 2 -116 10 -11 47 -14 148 -14 l135 0 10 29 c14 41
8 90 -16 138 -21 40 -22 55 -22 335 l0 293 128 0 127 0 0 -298 c0 -164 -3
-301 -8 -304 -4 -2 -5 -9 -2 -14 4 -5 1 -9 -5 -9 -6 0 -9 -4 -6 -9 4 -5 1 -11
-5 -13 -16 -5 -22 -117 -8 -134 10 -12 45 -15 173 -15 1983 -4 1854 -5 1876
17 18 18 21 33 21 127 0 112 -9 141 -46 151 -11 3 -69 6 -129 6 l-109 0 33 23
c57 38 75 72 74 134 0 30 -5 58 -10 61 -5 4 -14 16 -20 27 -15 29 -73 55 -121
55 -24 0 -43 5 -43 10 0 6 7 10 15 10 14 0 69 61 71 80 1 5 3 11 4 13 15 15
-2 127 -20 127 -5 0 -11 8 -14 18 -10 29 -51 42 -163 51 -7 1 -13 6 -13 11 0
6 3 9 8 9 20 -3 34 3 61 30 62 60 62 148 -1 215 -10 12 -23 22 -29 22 -5 1
-10 2 -11 4 -7 4 -46 11 -75 11 -41 1 -41 9 -3 31 84 48 95 179 20 241 -35 29
-59 34 -175 36 -60 1 -111 4 -113 6 -2 2 -4 29 -3 59 0 42 5 60 21 76 11 11
24 20 29 20 15 0 59 73 70 116 12 47 6 105 -15 146 -21 41 -84 100 -100 94 -8
-3 -14 -1 -14 5 0 6 -4 7 -10 4 -5 -3 -10 -2 -10 3 0 11 -130 8 -139 -4 -3 -5
-12 -10 -19 -12 -20 -4 -82 -64 -76 -73 3 -5 1 -9 -4 -9 -17 0 -35 -77 -29
-128 8 -73 57 -151 104 -166 15 -5 18 -16 17 -58 -1 -29 -2 -58 -3 -64 -1 -8
-40 -13 -118 -16 -94 -3 -125 -7 -150 -22 -18 -11 -30 -23 -28 -27 3 -4 -2
-10 -11 -13 -8 -3 -13 -10 -10 -15 4 -5 1 -11 -6 -13 -7 -3 -12 -25 -12 -60 0
-63 19 -101 65 -126 36 -21 37 -32 2 -32 -39 0 -103 -19 -103 -30 0 -6 -7 -10
-16 -10 -8 0 -13 -4 -9 -9 3 -6 -3 -14 -12 -20 -10 -6 -14 -11 -9 -11 5 0 3
-6 -3 -14 -10 -12 -14 -48 -9 -99 2 -23 53 -76 85 -88 36 -13 27 -24 -19 -25
-81 -2 -114 -18 -150 -75 -26 -41 -27 -118 -2 -143 8 -9 12 -16 8 -16 -4 0 6
-11 22 -25 16 -14 32 -25 37 -25 4 0 7 -4 7 -10 0 -5 -20 -10 -45 -10 -25 0
-45 -5 -45 -11 0 -5 -4 -8 -9 -4 -5 3 -16 -2 -24 -10 -9 -8 -19 -15 -24 -15
-4 0 -16 -18 -26 -39 -37 -77 -15 -161 52 -200 l36 -21 -116 0 c-101 0 -120
-3 -142 -20 -14 -11 -28 -30 -30 -43 -6 -31 -8 49 -8 340 0 139 2 261 6 272 7
22 -19 81 -35 81 -6 0 -10 4 -10 9 0 5 9 7 20 4 11 -3 20 0 20 6 0 6 6 11 13
11 13 0 20 42 19 118 0 17 3 32 7 33 3 1 23 3 45 4 21 2 44 9 50 15 7 7 11 59
11 143 l0 132 55 12 c30 6 55 12 55 13 0 1 11 4 25 6 13 2 28 10 32 17 4 6 8
8 8 2 0 -5 7 -1 15 9 8 11 15 16 15 10 0 -5 10 2 21 16 11 14 18 18 14 10 -4
-8 11 5 33 30 23 24 39 46 37 49 -3 2 5 16 16 32 28 40 31 66 33 312 1 167 -2
221 -11 229 -10 8 -8 16 11 35 34 33 43 66 42 147 -1 68 -2 69 -28 73 -16 2
-28 0 -29 -4 0 -4 -1 -37 -3 -73 -2 -70 -15 -103 -46 -120 -32 -17 -77 -11
-106 13 -24 21 -28 32 -30 93 -1 38 -3 74 -3 80 -1 6 -13 11 -28 10 -28 -1
-28 -2 -30 -70 -1 -38 3 -81 9 -95 5 -14 10 -28 10 -31 0 -3 11 -14 24 -24 21
-17 22 -20 7 -31 -14 -11 -16 -39 -16 -226 0 -118 -4 -224 -10 -235 -18 -41
-99 -65 -128 -38 -11 10 -31 14 -60 11 l-45 -3 0 79 c-1 80 -8 96 -40 101 -18
3 -19 15 -20 205 -1 124 -6 206 -12 214 -8 10 -82 13 -319 12 -169 0 -314 -4
-320 -8 -9 -6 -12 -53 -12 -175 1 -264 2 -250 -23 -254 -13 -2 -22 -9 -21 -16
2 -6 -1 -12 -5 -12 -5 0 -8 -15 -9 -32 0 -18 -1 -52 -2 -74 l-1 -41 -46 2
c-28 1 -48 -3 -51 -10 -5 -15 -124 -11 -154 5 -34 19 -39 54 -39 270 0 173 -3
211 -15 224 -12 12 -13 16 -2 23 34 22 50 67 51 147 1 79 1 79 -26 83 -16 2
-29 0 -29 -4 -1 -4 -2 -33 -4 -63 -2 -30 -3 -63 -4 -72 -2 -28 -49 -68 -81
-68 -41 0 -77 19 -85 44 -4 11 -9 47 -10 78 -1 32 -5 64 -8 73 -6 15 -38 21
-50 8z"/>
<path d="M968 2830 c-14 -16 -24 -30 -21 -30 2 0 -10 -12 -27 -26 -17 -15 -29
-28 -27 -30 2 -3 -18 -27 -46 -54 -28 -28 -47 -50 -44 -50 4 0 -11 -16 -33
-36 -22 -20 -37 -41 -33 -47 3 -6 1 -7 -5 -3 -7 4 -12 1 -12 -9 0 -9 -4 -14
-9 -10 -5 3 -20 -9 -32 -27 -12 -18 -35 -45 -51 -60 -16 -16 -26 -28 -23 -28
4 0 -7 -12 -24 -26 -17 -14 -28 -30 -25 -35 3 -5 2 -8 -3 -7 -5 2 -24 -14 -43
-35 -39 -44 -32 -55 33 -52 l42 2 0 -158 0 -159 -47 0 c-29 0 -52 -6 -63 -16
-12 -12 -19 -13 -29 -5 -9 8 -61 11 -150 10 -131 -1 -136 -2 -140 -23 -3 -11
-4 -145 -3 -296 l2 -275 140 -2 c80 -1 144 2 151 8 7 5 23 7 37 4 38 -10 178
-11 184 -2 2 4 9 5 14 1 5 -3 8 -2 7 3 -1 4 3 18 10 31 7 12 10 22 7 22 -3 0
1 13 9 29 9 16 12 31 9 35 -4 3 -1 6 6 6 7 0 10 4 7 9 -3 5 17 33 45 62 28 30
48 47 44 39 -4 -8 3 -4 14 10 11 14 21 21 21 15 0 -5 4 -4 8 2 4 7 19 15 32
17 14 2 26 5 28 7 3 2 11 4 53 13 44 9 146 -8 169 -29 9 -8 19 -12 22 -9 9 8
103 -86 121 -122 9 -17 18 -42 21 -55 8 -45 29 -79 54 -86 38 -9 155 -10 175
0 11 5 23 4 30 -1 14 -11 296 -15 298 -4 5 27 3 596 -2 603 -9 15 -295 7 -292
-8 4 -17 -22 -17 -36 0 -7 9 -26 12 -53 10 l-43 -4 0 158 0 158 48 -1 c26 0
50 3 52 7 5 7 -25 45 -85 110 -39 41 -149 162 -178 196 -10 13 -23 19 -27 15
-5 -4 -6 -2 -2 3 7 13 -77 107 -88 97 -5 -4 -6 -2 -2 4 3 5 -22 40 -57 77 -34
37 -59 67 -56 67 3 0 -2 5 -10 10 -25 16 -45 11 -72 -20z"/>
<path d="M855 1276 c-17 -12 -17 -15 0 -70 10 -32 24 -64 31 -71 7 -7 10 -15
7 -19 -4 -3 -1 -6 5 -6 7 0 12 -4 12 -9 0 -5 13 -22 28 -38 26 -25 28 -34 25
-86 -3 -63 8 -97 33 -97 33 0 41 23 38 104 -4 79 -4 80 35 130 72 97 87 146
42 146 -18 0 -90 -75 -83 -87 2 -2 -7 -12 -19 -22 -23 -18 -23 -18 -70 54 -55
84 -60 89 -84 71z"/>
<path d="M1766 1262 c-34 -4 -78 -31 -71 -42 3 -5 -2 -50 -11 -102 -20 -115
-15 -191 13 -220 52 -51 242 -6 206 50 -11 17 -31 20 -94 10 -20 -3 -42 -2
-49 2 -15 9 -9 75 8 76 6 1 32 2 57 3 32 1 51 7 67 23 20 20 20 22 3 34 -12 9
-37 11 -79 8 l-62 -5 2 38 c1 21 2 42 3 46 1 4 20 8 44 7 67 -1 89 4 101 23 8
12 8 22 0 35 -11 17 -70 23 -138 14z"/>
<path d="M2332 1259 c-46 -9 -53 -19 -58 -73 -2 -26 -6 -51 -9 -56 -12 -19
-16 -176 -6 -203 21 -54 111 -68 188 -30 25 12 39 26 41 42 2 15 0 21 -7 17
-6 -4 -11 -2 -11 4 0 8 -13 10 -42 4 -89 -15 -93 -13 -93 31 l0 40 62 5 c67 5
99 24 83 50 -7 11 -26 15 -78 13 l-68 -2 2 32 c1 18 3 38 3 45 1 9 18 12 61
11 62 -2 90 10 90 41 0 10 -6 22 -12 27 -15 12 -98 13 -146 2z"/>
<path d="M3394 1245 c-24 -24 -92 -159 -100 -199 -2 -10 -7 -23 -12 -30 -8
-10 -23 -55 -27 -81 -2 -15 16 -35 31 -35 7 0 25 20 40 45 26 46 35 50 99 45
17 -1 43 -3 60 -4 22 -1 33 -9 45 -31 18 -35 29 -45 52 -45 33 0 39 34 19 98
-22 67 -79 185 -92 190 -5 2 -7 7 -4 12 8 13 -43 60 -65 60 -11 0 -32 -11 -46
-25z m61 -85 c-3 -5 4 -24 15 -42 11 -18 20 -36 20 -39 0 -7 -87 -5 -94 2 -3
2 5 25 16 51 13 31 25 45 34 41 8 -3 12 -9 9 -13z"/>
<path d="M277 1254 c-1 -2 -34 -5 -72 -8 -49 -4 -73 -10 -82 -22 -22 -30 5
-54 65 -54 25 0 24 7 22 -130 -1 -109 8 -141 44 -146 31 -4 49 39 42 103 -9
82 -14 116 -16 128 -1 6 -2 19 -1 31 1 18 6 20 46 17 25 -2 53 1 63 6 24 13
25 49 1 61 -18 10 -105 21 -112 14z"/>
<path d="M605 1250 c-78 -17 -128 -67 -145 -143 -7 -30 -10 -67 -6 -81 3 -14
7 -29 7 -33 1 -5 10 -21 22 -37 41 -58 149 -84 205 -49 109 68 143 200 73 282
-32 39 -114 71 -156 61z m45 -97 c22 -10 40 -21 40 -26 0 -4 4 -6 8 -3 4 2 8
-3 9 -12 1 -10 3 -22 4 -27 6 -20 -32 -81 -59 -97 -52 -31 -116 5 -120 67 -3
44 34 115 60 115 10 0 36 -8 58 -17z"/>
<path d="M1435 1251 c-3 -2 -18 -4 -34 -3 -16 0 -34 -5 -39 -11 -17 -23 -30
-123 -29 -226 2 -86 5 -106 19 -115 22 -13 37 0 44 40 11 66 11 66 54 39 22
-14 44 -25 49 -25 5 0 11 -4 13 -8 6 -14 70 -40 88 -35 23 6 32 37 16 56 -6 8
-27 24 -46 37 -19 13 -37 25 -38 26 -2 1 15 19 37 39 22 21 38 41 35 46 -3 5
0 9 7 9 16 0 3 67 -19 95 -9 13 -31 28 -49 34 -29 11 -98 12 -108 2z m89 -67
c21 -13 14 -54 -9 -54 -7 0 -20 -6 -27 -12 -7 -7 -29 -14 -48 -16 -34 -3 -36
-1 -34 25 1 15 3 30 4 33 1 3 1 10 0 15 -1 6 2 7 5 3 4 -4 16 -1 26 6 22 15
56 15 83 0z"/>
<path d="M2025 1244 c-41 -21 -54 -35 -64 -72 -13 -45 19 -89 94 -129 33 -17
61 -36 63 -42 5 -15 -40 -24 -68 -13 -36 14 -70 -2 -70 -32 0 -50 53 -79 121
-65 24 4 47 8 50 9 18 1 51 42 53 67 6 49 -27 96 -91 131 -32 17 -67 37 -77
45 -19 14 -19 15 5 30 29 19 73 24 112 13 37 -11 42 -4 23 32 -23 44 -93 56
-151 26z"/>
<path d="M2632 1250 c-12 -5 -28 -7 -35 -5 -25 10 -38 -14 -51 -92 -13 -85
-15 -230 -2 -251 11 -18 43 -15 51 6 4 9 9 32 11 51 2 18 5 35 7 37 2 2 35
-16 74 -41 39 -24 77 -45 84 -46 26 -5 59 12 59 31 0 23 -16 39 -63 65 -35 19
-48 35 -28 35 5 0 26 15 45 34 30 28 36 40 36 75 0 61 -39 99 -111 106 -30 3
-64 1 -77 -5z m96 -64 c15 -5 21 -13 18 -23 -3 -8 -6 -19 -6 -24 0 -5 -3 -8
-7 -7 -5 1 -19 -4 -32 -11 -14 -8 -39 -16 -57 -18 -32 -4 -33 -4 -31 30 1 19
5 33 8 31 4 -2 9 2 12 10 9 22 51 27 95 12z"/>
<path d="M3162 1232 c-11 -15 -34 -63 -52 -107 -40 -99 -38 -95 -55 -89 -8 4
-13 10 -10 14 6 9 -24 63 -80 142 -29 41 -47 57 -63 58 -13 0 -21 -4 -18 -9 4
-5 2 -11 -4 -13 -6 -2 -3 -15 6 -33 8 -16 16 -32 17 -35 5 -25 118 -248 130
-258 9 -8 25 -11 37 -7 21 7 54 58 43 69 -4 3 -1 6 6 6 7 0 9 5 6 10 -3 6 -2
10 2 10 5 0 15 17 22 38 15 45 34 85 42 92 4 3 9 16 10 30 2 14 10 31 17 38
24 27 11 63 -25 68 -7 1 -21 -10 -31 -24z"/>
<path d="M3828 1255 c-1 -1 -33 -5 -70 -9 -86 -8 -100 -14 -96 -39 2 -16 15
-25 50 -35 l48 -13 -3 -98 c-4 -138 12 -182 58 -165 29 12 34 72 16 199 -6 38
-8 71 -6 73 2 3 25 4 51 4 26 -1 54 4 61 10 16 13 17 42 1 56 -12 9 -102 24
-110 17z"/>
<path d="M4305 1252 c-59 -10 -142 -63 -129 -84 3 -4 1 -8 -4 -8 -27 0 -41
-114 -21 -167 40 -106 201 -138 265 -53 7 8 21 26 33 39 27 31 43 91 36 133
-7 38 -38 95 -48 88 -3 -3 -12 3 -19 12 -16 20 -85 45 -113 40z m29 -97 c15
-8 35 -15 44 -15 8 0 13 -3 9 -6 -3 -3 1 -20 8 -37 14 -33 13 -34 -41 -93 -26
-28 -36 -32 -64 -28 -39 7 -53 19 -66 59 -12 35 -11 40 5 80 24 59 50 69 105
40z"/>
<path d="M4015 1241 c-17 -29 -26 -247 -11 -304 3 -15 15 -31 26 -37 40 -22
58 41 62 220 1 97 -10 130 -47 130 -13 0 -26 -4 -30 -9z"/>
</g>
</svg>
